<svg xmlns="http://www.w3.org/2000/svg" width="1600" height="900" viewBox="0 0 1600 900"><rect width="1600" height="900" fill="#F7F1E5"/><rect x="72" y="62" width="48" height="48" rx="12" fill="#FFD928"/><path d="M87 89l10-12 9 10 10-14" fill="none" stroke="#171713" stroke-width="6" stroke-linecap="round"/><text x="138" y="96" font-family="Manrope,Arial" font-size="25" font-weight="800" fill="#171713">Assistara Academy</text><text x="72" y="178" font-family="Manrope,Arial" font-size="18" font-weight="800" letter-spacing="3" fill="#6C695F">DOCS · COLLABORATION</text><text x="72" y="270" font-family="Manrope,Arial" font-size="66" font-weight="800" fill="#171713">Editing is only one mode.</text><g><rect x="72" y="350" width="900" height="420" rx="24" fill="#fff" stroke="#171713" stroke-width="3"/><text x="120" y="420" font-family="Manrope,Arial" font-size="24" font-weight="800">Client Onboarding SOP</text><rect x="120" y="470" width="600" height="20" rx="10" fill="#D9D5CC"/><rect x="120" y="515" width="720" height="20" rx="10" fill="#D9D5CC"/><rect x="120" y="560" width="520" height="20" rx="10" fill="#FFD928"/><rect x="680" y="535" width="240" height="90" rx="18" fill="#FFF4B0"/><text x="800" y="580" text-anchor="middle" font-family="Manrope,Arial" font-size="18" font-weight="800">SUGGESTION</text><text x="1080" y="410" font-family="Manrope,Arial" font-size="26" font-weight="800">COMMENT</text><text x="1080" y="495" font-family="Manrope,Arial" font-size="26" font-weight="800">SUGGEST</text><text x="1080" y="580" font-family="Manrope,Arial" font-size="26" font-weight="800">EDIT</text><text x="1080" y="665" font-family="Manrope,Arial" font-size="26" font-weight="800">VERSION HISTORY</text></g><text x="1480" y="840" text-anchor="end" font-family="Manrope,Arial" font-size="18" font-weight="700" fill="#6C695F">6 / 10</text></svg>